<?xml version="1.0"?>
<svg xmlns:rdf="http://www.w3.org/1999/02/22-rdf-syntax-ns#" xmlns="http://www.w3.org/2000/svg" xmlns:cc="http://web.resource.org/cc/" xmlns:xlink="http://www.w3.org/1999/xlink" xmlns:dc="http://purl.org/dc/elements/1.1/" xmlns:svg="http://www.w3.org/2000/svg" id="svg2" viewBox="0 0 141.78 179.81" version="1.0">
  <defs id="defs4">
    <linearGradient id="linearGradient9890" x1="347" gradientUnits="userSpaceOnUse" y1="417.11" gradientTransform="matrix(.96509 0 0 .96509 -293.49 -301.38)" x2="376.5" y2="375.11">
      <stop id="stop8114" stop-color="#5a5a5a" offset="0"/>
      <stop id="stop8116" stop-color="#c6c6c6" stop-opacity="0" offset="1"/>
    </linearGradient>
    <radialGradient id="radialGradient15226" gradientUnits="userSpaceOnUse" cy="330.67" cx="452.81" gradientTransform="matrix(-.63914 -.42728 .71829 -1.0744 74.046 594.02)" r="7.1607">
      <stop id="stop14335" stop-color="#eebe9e" offset="0"/>
      <stop id="stop14337" stop-color="#eebe9e" stop-opacity="0" offset="1"/>
    </radialGradient>
    <linearGradient id="linearGradient4561" y2="25.336" gradientUnits="userSpaceOnUse" y1="125.39" x2="108.14" x1="-43.815">
      <stop id="stop16117" stop-color="#b3b3b3" offset="0"/>
      <stop id="stop16119" stop-color="#f7f7f7" offset="1"/>
    </linearGradient>
  </defs>
  <g id="layer1" transform="translate(-7.3576 -5.5473)">
    <path id="path1894" fill-rule="evenodd" d="m58.516 106.37l-2.642 11.93c-28.766 2.73-22.398 47.57-24.71 67.17l117.9 0.25 0.07-98.485-14.49-13.058c-28.7 8.017-56.132 11.116-76.124 32.193z"/>
    <path id="path1886" fill-rule="evenodd" fill="url(#linearGradient4561)" d="m27.249 31.823c1.452-14.893 18.492-18.294 36.559-19.986 23.107 0.077 35.052 6.85 45.332 14.624 15.34 15.16 15.31 28.398 21.45 42.407l16.08 16.086c-38.59-9.253-64.004 6.637-88.712 23.886l-0.487-36.072c-3.625-1.037-11.68-12.167-20.96-17.061l-9.262-23.884z"/>
    <path id="path1884" fill-rule="evenodd" fill="#d38d5f" d="m65.782 44.837c-1.036 3.412-7.139 6.824-14.624 10.237-10.561-0.65-21.804 2.464-32.366 6.97 3.921-6.85 14.622-12.551 46.99-17.207z"/>
    <path id="path2775" fill-rule="evenodd" fill="#a05a2c" d="m43.335 32.31l20.473-4.874c0.978 3.513 2.129 7.038-1.95 10.236-2.856-0.224-5.613 1.324-8.774-4.387l-9.749-0.975z"/>
    <path id="path1882" fill-rule="evenodd" fill="#cf7b00" d="m16.526 68.868c-5.801-12.64-8.6819-25.194 12.324-36.558l5.224 0.487 17.06 10.237 15.111 1.949c-16.305 4.237-34.523 3.371-47.282 17.061l-2.437 6.824z"/>
    <path id="path2777" fill-rule="evenodd" fill="#d0d0d0" d="m57.593 29.629c2.992 0.09 7.856-2.564 6.336 4.143-1.204 4.683-4.186 2.702-6.58 2.925-3.515-2.356-2.724-4.712 0.244-7.068z"/>
    <path id="path2779" opacity=".69512" transform="matrix(.96509 0 0 .96509 -293.49 -301.38)" fill="none" d="m367.19 344.37a2.5885 0.25254 0 1 1 -5.18 0 2.5885 0.25254 0 1 1 5.18 0z"/>
    <path id="path8102" fill-rule="evenodd" fill="url(#linearGradient9890)" d="m51.048 55.088l28.47-1.448 12.547 35.226c-13.29 5.876-22.533 11.784-34.232 20.204l-0.029-36.611c-5.487-2.133-16.434-14.231-20.749-16.889l13.993-0.482z"/>
    <path id="path10777" opacity=".69512" transform="matrix(.96509 0 0 .96509 -414.61 -272.91)" fill="#333" d="m492.85 316.79a1.591 1.591 0 1 1 -3.18 0 1.591 1.591 0 1 1 3.18 0z"/>
    <path id="path12553" opacity=".43089" fill-rule="evenodd" fill="url(#radialGradient15226)" d="m28.384 34.419c-9.284 3.339-14.14 10.143-12.966 21.667l13.648-8.36-0.682-13.307z"/>
  </g>
  <metadata>
    <rdf:RDF>
      <cc:Work>
        <dc:format>image/svg+xml</dc:format>
        <dc:type rdf:resource="http://purl.org/dc/dcmitype/StillImage"/>
        <cc:license rdf:resource="http://creativecommons.org/licenses/publicdomain/"/>
        <dc:publisher>
          <cc:Agent rdf:about="http://openclipart.org/">
            <dc:title>Openclipart</dc:title>
          </cc:Agent>
        </dc:publisher>
        <dc:title>Eagle</dc:title>
        <dc:date>2007-01-24T06:25:54</dc:date>
        <dc:description>animal, animal, bird, bird, clip art, clipart, eagle, eagle, head, head, image, media, nature, nature, public domain, svg, </dc:description>
        <dc:source>http://openclipart.org/detail/2962/eagle-by-nfroidure</dc:source>
        <dc:creator>
          <cc:Agent>
            <dc:title>nfroidure</dc:title>
          </cc:Agent>
        </dc:creator>
        <dc:subject>
          <rdf:Bag>
            <rdf:li>animal</rdf:li>
            <rdf:li>bird</rdf:li>
            <rdf:li>clip art</rdf:li>
            <rdf:li>clipart</rdf:li>
            <rdf:li>eagle</rdf:li>
            <rdf:li>head</rdf:li>
            <rdf:li>image</rdf:li>
            <rdf:li>media</rdf:li>
            <rdf:li>nature</rdf:li>
            <rdf:li>public domain</rdf:li>
            <rdf:li>svg</rdf:li>
          </rdf:Bag>
        </dc:subject>
      </cc:Work>
      <cc:License rdf:about="http://creativecommons.org/licenses/publicdomain/">
        <cc:permits rdf:resource="http://creativecommons.org/ns#Reproduction"/>
        <cc:permits rdf:resource="http://creativecommons.org/ns#Distribution"/>
        <cc:permits rdf:resource="http://creativecommons.org/ns#DerivativeWorks"/>
      </cc:License>
    </rdf:RDF>
  </metadata>
</svg>
