<?xml version="1.0" encoding="UTF-8" standalone="no"?>
<!-- Created with Inkscape (http://www.inkscape.org/) -->

<svg
   id="svg4354"
   sodipodi:docname="Lion-vector.svg"
   viewBox="0 0 128 128"
   version="1.1"
   enable-background="new"
   inkscape:version="1.3.2 (091e20ef0f, 2023-11-25, custom)"
   width="128"
   height="128"
   xmlns:inkscape="http://www.inkscape.org/namespaces/inkscape"
   xmlns:sodipodi="http://sodipodi.sourceforge.net/DTD/sodipodi-0.dtd"
   xmlns="http://www.w3.org/2000/svg"
   xmlns:svg="http://www.w3.org/2000/svg"
   xmlns:rdf="http://www.w3.org/1999/02/22-rdf-syntax-ns#"
   xmlns:cc="http://creativecommons.org/ns#"
   xmlns:dc="http://purl.org/dc/elements/1.1/">
  <defs
     id="defs4358">
    <filter
       id="filter4948"
       inkscape:collect="always"
       x="-0.00048136971"
       y="-0.00037397766"
       width="1.0009345"
       height="1.0007523">
      <feBlend
         id="feBlend4950"
         in2="BackgroundImage"
         mode="screen"
         inkscape:collect="always" />
    </filter>
    <filter
       id="filter5331"
       inkscape:collect="always"
       x="-0.0002304083"
       y="0"
       width="1.0002304"
       height="1.0000915">
      <feBlend
         id="feBlend5333"
         in2="BackgroundImage"
         mode="multiply"
         inkscape:collect="always" />
    </filter>
  </defs>
  <sodipodi:namedview
     id="namedview4356"
     bordercolor="#666666"
     inkscape:pageshadow="2"
     guidetolerance="10"
     pagecolor="#ffffff"
     gridtolerance="10"
     inkscape:window-maximized="1"
     inkscape:zoom="2.56"
     objecttolerance="10"
     borderopacity="1"
     inkscape:current-layer="layer19"
     inkscape:cx="-6.25"
     inkscape:cy="66.796875"
     inkscape:window-y="0"
     inkscape:window-x="0"
     inkscape:guide-bbox="true"
     inkscape:window-width="2560"
     showgrid="false"
     inkscape:pageopacity="0"
     inkscape:window-height="1382"
     showguides="true"
     inkscape:showpageshadow="0"
     inkscape:pagecheckerboard="0"
     inkscape:deskcolor="#505050" />
  <g
     id="layer18"
     style="display:none"
     inkscape:label="black"
     inkscape:groupmode="layer">
    <path
       id="path4978"
       style="fill:#000000;stroke:#000000;stroke-width:1px"
       inkscape:connector-curvature="0"
       d="m 1153.4,2497.7 347.54,-372.72 317.32,-115.85 171.25,-60.442 75.552,120.88 -30.221,105.77 c 0,0 -171.25,206.51 -246.8,241.77 -75.552,35.258 -332.43,156.14 -332.43,156.14 l -251.84,25.184 -135.99,-25.184 z" />
  </g>
  <g
     id="layer19"
     style="filter:url(#filter5331)"
     inkscape:label="textpfad"
     inkscape:groupmode="layer">
    <path
       id="path4915"
       style="fill:#ffffff;stroke:#000000;stroke-width:1px;filter:url(#filter4948)"
       inkscape:connector-curvature="0"
       d="m 1372.8,789.24 c 0,0 -22.26,-9.7942 -36.506,-6.2327 -14.246,3.5616 -51.642,30.273 -64.998,28.492 -13.356,-1.7808 -32.054,3.5616 -48.971,-7.1231 -16.917,-10.6847 -45.41,-24.04 -57.875,-24.931 -12.465,-0.89039 -41.848,0 -51.642,4.4519 -9.7942,4.4519 -28.492,16.027 -28.492,16.027 0,0 -8.9039,7.1231 -17.808,3.5615 -8.9038,-3.5615 -53.423,-35.615 -53.423,-35.615 0,0 -16.917,-16.027 -28.492,-14.246 -11.575,1.7808 -56.985,19.589 -56.985,19.589 l -39.177,9.7942 c -7.1231,1.7808 -18.698,-2.6712 -26.712,-8.0135 -8.0135,-5.3423 -34.725,-32.054 -55.204,-34.725 -20.479,-2.6712 -20.479,-2.6712 -20.479,-2.6712 l -132.67,-17.808 -43.629,-1.7808 -34.725,13.356 -40.067,21.369 -2.6712,20.479 21.369,24.931 14.246,16.917 -20.479,15.137 -33.835,40.067 c 0,0 -32.944,40.067 -40.958,42.739 -8.0135,2.6712 -22.26,36.506 -22.26,36.506 l 18.698,40.067 c 0,0 13.356,7.1231 9.7942,14.246 -3.5615,7.1231 -27.602,62.327 -24.931,73.902 2.6711,11.575 3.5615,69.45 5.3423,100.61 1.7808,31.164 10.685,63.217 10.685,63.217 l 10.685,-28.492 8.9039,-43.629 16.027,-30.273 24.04,-9.7943 46.3,23.15 70.341,125.54 96.162,40.067 3.5615,-117.53 68.56,64.108 71.231,-14.246 16.027,-5.3423 59.656,139.79 34.725,45.41 -1.7808,45.41 -97.052,167.39 -59.656,86.368 -51.642,8.0135 -78.354,78.354 -118.42,24.931 -55.204,3.5615 4.4519,0.8904 h 5.3424 l 8.9038,7.1231 -56.094,-8.0135 v 53.423 c 0,0 57.875,81.916 56.094,86.368 -1.7807,4.4519 57.875,81.025 57.875,81.025 l 137.12,-5.3423 113.08,-114.86 34.725,-42.738 340.13,-142.46 134.45,-160.27 70.341,-194.99 0.8904,-0.8904 145.13,-234.17 -18.698,-181.64 -81.916,-165.61 z"
       transform="matrix(0.05636422,0,0,0.05585394,-6.3177685,-29.970947)" />
    <path
       id="path4365"
       style="fill:#000000;stroke:#000000;stroke-width:0.0561088px"
       inkscape:connector-curvature="0"
       d="m 70.756507,14.191637 c 0,0 2.555058,-2.180284 2.69703,-3.446202 0.14195,-1.2659783 0.425846,-1.4769515 0.425846,-2.109937 V 8.0025061 c 0,0 1.135565,2.3912639 0.780736,3.5868939 -0.354866,1.195629 -0.283897,1.547299 -0.283897,1.547299 0,0 1.561404,-0.914313 2.626013,-0.984655 1.064609,-0.07033 2.200173,-0.42199 3.335793,-0.351659 l 1.135564,0.07034 c 0,0 -1.632421,0.210991 -1.774327,0.773617 -0.141943,0.562649 2.626014,0.773616 3.335793,0.351652 0.709719,-0.421983 4.968214,-0.984651 8.516863,-0.07033 3.548713,0.914307 4.187476,1.195629 4.826245,1.054998 l 0.638763,-0.14066 c 0,0 -0.922642,0.984656 -2.129217,1.125287 -1.206577,0.14066 -1.206577,0.14066 -1.206577,0.14066 0,0 3.12287,0.210992 4.968215,1.33626 1.84534,1.12527 2.41309,1.476951 2.41309,1.476951 0,0 -1.845344,-0.773616 -3.193826,-0.492312 -1.348481,0.281321 -1.348481,0.281321 -1.348481,0.281321 0,0 5.039167,0.281322 6.813257,2.250567 1.77432,1.969252 2.69702,2.953903 2.69702,2.953903 0,0 -1.20658,-0.914309 -3.47777,-0.84396 l -2.27118,0.07033 c 0,0 6.67159,2.602238 9.08473,5.69683 2.4131,3.094593 2.83895,3.727525 2.83895,3.727525 0,0 -3.40675,-2.250574 -5.60692,-2.250574 h -2.20023 c 0,0 7.87785,2.109943 6.24599,7.736184 -1.63242,5.626482 -5.18107,7.033331 -6.67159,7.525198 -1.49045,0.492326 -3.19383,1.40661 -3.19383,1.40661 0,0 0.63877,0.562655 2.34215,0 1.70337,-0.56265 4.61332,-3.024251 6.74272,-2.813212 2.12921,0.210991 3.54872,0.562656 4.11652,0.984656 l 0.5678,0.421977 c 0,0 -2.20017,-0.351646 -2.69702,0.281328 -0.49684,0.632992 -0.56781,0.632992 -0.56781,0.632992 0,0 3.97457,1.33626 5.39401,3.727518 1.41949,2.391264 1.70337,3.938557 1.70337,3.938557 0,0 -1.9163,-2.109936 -3.69063,-2.180284 l -1.77439,-0.07033 c 0,0 2.55507,1.125281 4.11653,5.274818 1.5614,4.149531 1.70337,5.837461 1.70337,5.837461 0,0 -0.78073,-1.33626 -1.98724,-1.617641 -1.20658,-0.281328 0.14195,1.47695 0.14195,1.47695 0,0 1.70337,2.602237 -0.071,10.197972 -1.77435,7.595709 -5.89086,16.387406 -7.38112,18.919085 -1.49046,2.531979 -4.7553,6.329916 -5.60698,6.892332 l -0.85169,0.562595 c 0,0 2.05827,-2.672568 2.27119,-7.17375 0.21292,-4.501243 0.21292,-4.501243 0.21292,-4.501243 0,0 -2.34214,2.461655 -2.83894,4.641832 -0.49682,2.180297 -0.78073,4.71221 -0.78073,4.71221 0,0 -2.413098,-5.063832 -2.129218,-9.072564 0.283896,-4.008912 0.354868,-4.008912 0.354868,-4.008912 0,0 -4.187475,9.565022 -8.72966,12.940649 -4.542307,3.375938 -6.458783,4.501182 -6.88438,4.782542 l -0.425853,0.2813 c 0,0 1.987251,-2.602242 3.12287,-5.556118 1.135565,-2.953917 1.064609,-3.516572 0.993659,-4.852856 l -0.07097,-1.336284 c 0,0 -2.697023,5.204487 -6.103772,7.525193 -3.406743,2.320941 -5.677927,3.446195 -6.458784,4.641825 -0.780736,1.19564 -0.780736,1.19564 -0.780736,1.19564 0,0 0.07098,-1.96926 0.780736,-3.446194 0.709719,-1.476933 1.064609,-2.25057 1.064609,-2.25057 l -2.838936,2.4616 c 0,0 -6.529303,8.158114 -8.942461,9.846564 -2.41309,1.68791 -8.588001,6.89227 -14.691713,8.79163 -6.103773,1.89901 -7.94899,2.1803 -7.94899,2.1803 0,0 2.697025,-1.05493 3.264776,-2.03959 0.567795,-0.98466 1.561405,-3.37593 1.561405,-3.37593 0,0 -2.200168,2.67263 -5.890851,4.36054 -3.690621,1.6879 -3.903544,1.19563 -5.039163,2.81321 -1.135565,1.61764 -1.774328,2.88354 -1.774328,2.88354 0,0 0,-3.72749 2.41309,-9.07257 2.41309,-5.34514 3.051854,-7.10324 4.116462,-7.80667 1.064608,-0.70337 1.277532,-0.77363 1.277532,-0.77363 0,0 -6.032756,2.03959 -8.091266,2.25057 -2.058267,0.21096 -2.058267,0.21096 -2.058267,0.21096 0,0 -4.471352,-0.0703 -6.174723,-0.7033 l -1.703378,-0.63298 c 0,0 5.039171,-1.4066 7.168321,-4.21988 2.129217,-2.81322 2.129217,-2.81322 2.129217,-2.81322 0,0 -2.41309,2.53192 -6.103772,3.37593 l -3.690623,0.84395 c 0,0 3.335793,-3.23522 4.187479,-5.837465 0.851685,-2.602249 0.709719,-2.74295 0.709719,-2.74295 0,0 -1.845338,2.461652 -5.819839,4.008855 -3.974556,1.54732 -5.465004,1.68796 -5.465004,1.68796 0,0 3.548709,-2.10997 4.542307,-6.470326 0.993653,-4.360531 1.206576,-5.063896 0.993653,-6.25935 l -0.212923,-1.195636 c 0,0 -1.632416,2.742893 -3.690622,3.65723 l -2.058261,0.914278 c 0,0 4.613325,-7.384724 3.12287,-15.120894 -1.490449,-7.736208 -1.064609,-10.619948 -2.484102,-10.619948 -1.419497,0 -2.838935,0.914308 -3.051858,1.687925 l -0.212923,0.773623 c 0,0 -2.129211,-2.461608 -0.42584,-6.822365 1.703372,-4.36051 2.342134,-4.712174 2.342134,-4.712174 0,0 -2.200167,0.492319 -3.12287,1.828615 -0.922635,1.33626 -0.922635,1.406608 -0.922635,1.406608 0,0 -0.496827,-5.837461 3.051853,-10.057527 3.548716,-4.219873 2.980902,-4.079183 5.039164,-5.415509 2.058261,-1.336259 -0.212923,-0.703334 -1.064609,-1.054998 -0.851685,-0.351652 -1.348482,-0.984656 -2.200168,-1.758273 -0.851685,-0.773616 2.200168,0.843965 5.039165,-0.351652 2.838936,-1.195635 4.968154,-3.02425 4.471352,-3.938563 -0.496815,-0.914308 -0.567783,-0.984651 -0.567783,-0.984651 0,0 -2.838936,-3.727524 -3.477699,-5.345166 -0.638769,-1.617642 -0.922642,-4.290222 0,-4.008907 0.922636,0.281322 1.348482,1.336266 1.561405,0.914314 0.212917,-0.421988 0.638763,-0.632992 0.922635,-0.421988 0.283904,0.210991 0.709719,-1.125287 1.064609,-0.562649 0.354865,0.562649 0.425839,1.476951 0.425839,1.476951 0,0 1.419499,-1.828616 1.916295,-2.109938 0.49682,-0.281327 1.348482,-1.617647 1.632421,-0.210997 0.283898,1.406608 1.064603,2.391265 0.567789,3.305572 -0.49682,0.914308 -1.561405,2.461607 -1.490449,4.008901 0.07097,1.547299 2.058261,4.430859 2.058261,4.430859 0,0 0.14195,-4.852872 1.135565,-5.76718 0.993653,-0.914307 1.845339,-2.320916 2.555058,-2.180285 0.709718,0.140667 1.135559,1.265978 1.348481,1.68793 0.212924,0.421983 1.774327,-0.140661 2.058261,0.421983 0.283904,0.562644 -0.212916,2.531949 0.212923,2.953902 0.425846,0.421988 1.774327,0.351652 1.774327,0.351652 0,0 0.212924,0.843965 0.14195,1.617641 -0.07098,0.773623 0.49682,0.210997 1.348481,-0.562643 0.851661,-0.773646 1.206575,-1.265978 1.632421,-1.336265 0.425846,-0.07033 0.49682,-0.07033 0.49682,-0.07033 0,0 -6.742723,-6.962809 -10.64608,-8.721141 -3.903539,-1.758273 -6.245988,-3.02425 -7.239459,-2.461607 -0.993652,0.562643 -2.129217,2.109937 -2.41309,2.109937 -0.283891,0 -0.212917,-1.195629 -0.709718,-1.828615 -0.496821,-0.632986 -1.916295,-0.210991 -1.916295,0.421989 0,0.632973 -1.135559,0.421988 -0.283891,-1.406609 0.851667,-1.828591 0.212916,-1.547293 2.200167,-2.742928 1.987257,-1.195629 2.271184,-2.953903 1.916294,-3.938558 -0.354872,-0.984656 -0.922635,-1.828616 -0.42584,-2.250568 0.496821,-0.421982 1.348482,-0.281322 0.638764,-0.914308 -0.70972,-0.632992 -2.413091,-1.969251 -0.567796,-3.305572 1.845345,-1.33626 2.909954,-1.054938 4.258435,-0.773617 1.348482,0.281328 4.329385,0.914309 5.18107,1.969247 0.851687,1.055004 0.212924,2.039594 0.922642,2.180284 0.709719,0.140662 1.632416,-0.492312 2.200168,-0.773616 0.567789,-0.281322 2.129217,-0.632986 2.76798,0.421988 0.638769,1.054939 1.206575,1.687925 -0.212917,1.969247 -1.419486,0.281321 -4.755285,0.703334 -5.819833,0.492319 -1.064609,-0.210998 -2.200167,-0.210998 -2.129218,0.562643 0.07097,0.773617 0.212918,1.687924 -0.922641,1.687924 -1.135553,0 -3.832589,0 -3.19382,2.039595 0.638762,2.039594 -0.425846,1.758272 6.742724,5.415508 7.168563,3.657237 8.588001,5.274818 9.013598,6.118783 0.42584,0.843965 1.064609,1.969246 1.064609,1.969246 0,0 0.283897,-0.351652 0.425839,-0.773617 0.141949,-0.421988 1.064609,-0.632986 1.206575,-0.07033 0.141956,0.56265 -0.283896,1.969247 0.212924,3.305566 0.496814,1.336261 1.490455,5.90781 2.76798,8.650613 1.277531,2.742928 2.69703,3.727524 1.845344,5.55614 -0.851685,1.828621 -2.626013,4.993501 -3.690622,6.962807 -1.064608,1.969252 -4.471351,7.033338 -4.826241,7.736179 -0.354872,0.703334 0.283885,1.195635 -0.141955,1.547299 -0.425839,0.351653 -1.845338,-0.281328 -2.129211,-0.632985 -0.283897,-0.351659 -1.419498,1.758272 -2.838936,3.024243 -1.419498,1.265978 -3.690622,3.727525 -7.168321,3.586876 -3.477698,-0.140637 -5.89085,0.351682 -6.813243,-0.140637 -0.922641,-0.492319 -0.212922,0.703353 -0.212922,0.703353 0,0 1.490454,1.476933 2.129217,3.938527 0.638763,2.461595 1.774327,4.219885 2.909947,4.71222 1.135564,0.492271 -0.283898,-1.125314 0.496825,-0.984665 0.780731,0.140649 2.058262,1.195638 4.187479,0.843955 2.129212,-0.351684 2.909947,-4.079179 5.53596,-5.485847 2.626014,-1.406609 10.930014,-6.751854 12.136287,-7.525224 1.206575,-0.773616 2.484101,-2.391264 3.335793,-1.898962 0.851685,0.492312 1.419491,2.109936 2.271183,1.547292 0.851686,-0.562648 2.626007,-2.461606 2.626007,-2.883552 0,-0.42199 -0.141942,-2.531956 0.283898,-2.813218 0.425839,-0.281327 0.283898,0.281322 0.993653,1.5473 l 0.709718,1.265977 c 0,0 1.206575,-4.149537 4.187479,-6.822363 2.980903,-2.672581 6.387651,-4.21988 6.955525,-9.002644 l 0.567783,-4.782523 c 0,0 4.897196,-1.406608 5.819899,-5.134187 0.922636,-3.727524 1.916295,-5.978152 1.703371,-7.314231 -0.212922,-1.33626 -3.335792,-1.758272 -3.832589,-3.446197 -0.49682,-1.68793 -1.064607,-3.164881 -1.064607,-3.164881 0,0 1.632421,1.758273 3.477698,1.828621 1.845344,0.07033 -0.283891,-6.470326 -3.051853,-7.244316 l -2.767985,-0.773616 c 0,0 3.335792,-0.281328 3.406748,-1.828621 0.07098,-1.547294 -1.845343,-3.305566 -3.548715,-3.938558 -1.703371,-0.632987 -1.419493,-0.914308 -1.419493,-0.914308 z" />
    <path
       id="path4888"
       style="fill:#ffffff;stroke:#ffffff;stroke-width:0.0561088px"
       inkscape:connector-curvature="0"
       d="m 32.389791,50.186273 c 0,0 -0.922636,-0.07032 -1.561405,0.492326 -0.638762,0.562643 -0.638762,0.98465 -0.922635,1.19563 -0.283904,0.210984 -1.064609,0.140654 -1.845345,0.492312 l -0.780729,0.351658 c 0,0 0.354871,0.07033 0.780729,0.914308 0.425846,0.843965 1.206575,1.125287 0.709719,1.828615 -0.49682,0.703334 -0.354872,1.617647 -0.851685,1.265977 -0.49682,-0.351651 -0.567796,-0.492319 -1.774328,-0.351651 -1.206576,0.14066 -1.277526,0.14066 -1.277526,0.14066 0,0 1.277526,0.281328 1.419499,0.421988 0.141949,0.140662 0.354866,0.914309 0.141949,1.547294 -0.212924,0.632992 -0.354872,1.336326 -0.354872,1.336326 0,0 -0.283903,-0.351664 -1.064609,-0.632992 -0.780712,-0.281328 -1.561404,-0.210991 -1.561404,-0.210991 l 1.064608,0.773617 c 0,0 1.064609,1.054938 0.851686,2.039594 -0.212923,0.984657 -0.496821,3.02425 -1.135565,3.375914 -0.638763,0.351653 -1.419492,0.140662 -2.342134,-1.406602 -0.922642,-1.547299 -1.632422,-2.461607 -1.632422,-2.461607 0,0 -0.212922,4.079189 0.283904,5.626483 0.49682,1.547299 1.774321,2.883559 2.129211,2.883559 0.354871,0 0.567795,-0.632992 1.064609,-0.56265 0.496814,0.07033 0.780735,0.56265 1.135565,0.492319 0.354872,-0.07033 0.567788,-0.98465 0.851685,-0.773617 0.283898,0.210998 1.348482,0.843965 1.632422,0.492326 0.283897,-0.351659 1.632415,-0.632992 1.916294,-0.351659 0.283898,0.281322 1.277526,1.19563 1.632416,0.492319 0.354871,-0.703334 0.354871,-2.391264 1.064608,-2.672586 0.709737,-0.281321 0.922641,-1.406602 1.561405,-1.406602 0.638763,0 2.767979,-0.843965 3.548715,-1.68793 0.780729,-0.843965 2.980904,-1.969246 4.329385,-3.094593 1.348481,-1.125287 4.471352,-3.586894 5.11012,-5.415508 0.638763,-1.828622 0.567789,-3.024251 1.206575,-3.305573 0.638764,-0.281315 -0.354865,-0.914307 -0.922641,-0.210985 -0.567794,0.703328 -1.277525,0.421976 -1.206575,1.265972 0.07098,0.843965 -0.14195,1.898963 -0.70972,2.039594 -0.567794,0.140661 -1.987244,-0.210991 -1.987244,0.140661 0,0.351664 0.567789,0.984656 0.638763,1.406608 0.07098,0.421989 -0.425846,-0.140661 -1.064609,-0.140661 -0.638763,0 -1.135559,0.351652 -0.851685,0.914308 0.283897,0.562649 0.425846,0.773617 -0.07098,0.984656 -0.49682,0.210991 -1.419499,-0.351664 -1.490448,0.210991 -0.07097,0.56265 0.851685,0.703334 0.638763,1.054938 -0.212924,0.351659 -0.993653,-0.351651 -1.206577,0.140668 -0.212922,0.492312 0.49682,1.476957 -0.425839,1.617647 -0.922642,0.140661 -1.703378,0.492313 -2.129217,0.281322 -0.425846,-0.210997 -1.348482,-1.054944 -1.064609,-0.281322 0.283898,0.773617 0.638763,1.195629 0.283898,1.476951 -0.354872,0.281328 -0.922637,1.195629 -1.774329,1.12528 -0.851685,-0.07033 -1.77432,-1.12528 -1.987244,-0.492319 -0.212922,0.632963 0.283898,0.773618 0,1.336321 -0.283891,0.562643 -0.851685,0.492313 -0.851685,1.195629 0,0.703323 -0.780736,1.406608 -1.206576,1.125287 -0.425846,-0.281327 -1.206575,-2.109936 -1.206575,-3.094593 0,-0.984656 -0.07098,-1.828621 -0.07098,-1.828621 0,0 -1.490454,1.969252 -1.419498,3.024251 0.07097,1.054938 0.425846,1.898963 0.212922,2.250567 -0.212922,0.351664 -0.567794,0.562649 -1.206575,0.140666 -0.638768,-0.421982 -1.206581,0.281317 -1.916294,-0.140666 -0.70972,-0.421982 -0.283903,-0.773617 0.993652,-2.742923 1.277532,-1.969252 2.484107,-3.797866 2.76798,-4.993501 0.283892,-1.19563 0.496821,-1.476952 1.348482,-2.320911 0.851662,-0.843965 0.567795,-2.391264 1.561404,-3.51655 0.99366,-1.125282 1.703378,-3.024245 1.490455,-3.305567 C 32.673732,50.397307 32.03497,49.9753 32.389835,50.18631 Z" />
    <path
       id="path4896"
       style="fill:none;stroke:#000000;stroke-width:0.611583"
       inkscape:connector-curvature="0"
       d="m 30.669473,50.339598 c 0,0 1.555773,-0.64648 1.957245,-0.198923 0.40149,0.447585 0.351304,1.840087 0.351304,1.840087 v -0.09946" />
    <path
       id="path4375"
       style="fill:none;stroke:#000000;stroke-width:0.561088"
       inkscape:connector-curvature="0"
       d="m 71.542128,14.197767 c 0,0 -1.774388,-0.843965 -2.909947,-0.492312 -1.135559,0.351652 -2.129217,1.336259 -3.832589,1.47695 -1.703371,0.140661 -2.34214,-0.703334 -4.258434,-1.33626 -1.916294,-0.632985 -3.264837,-0.351657 -4.613318,0.140662 -1.348482,0.492319 -1.348482,1.195629 -2.555064,0.562654 -1.206575,-0.632979 -3.19382,-2.883558 -4.826241,-2.320915 -1.632421,0.56265 -4.400402,1.969245 -5.677933,1.265977 -1.277525,-0.703334 -1.632415,-2.109942 -7.310597,-2.742928 -5.677927,-0.632992 -6.529303,-1.055005 -8.020128,-0.492325 -1.490448,0.56265 -3.761632,1.547299 -3.832588,2.039594 -0.07097,0.492319 0.07097,1.195635 0.567794,1.68793 0.49682,0.492319 1.419499,0.914308 0.993653,1.476952 -0.425841,0.562648 -2.76798,3.375914 -3.690623,4.219879 -0.922635,0.843965 -2.626006,2.180285 -2.342134,3.586893 0.283898,1.406603 1.206576,1.758274 1.135559,2.883554 -0.07097,1.125287 -1.277525,1.68793 -1.064608,6.962808 0.212922,5.274817 0.922641,6.540856 0.922641,6.540856 0,0 0.425846,-3.797868 1.490454,-5.345167 1.064603,-1.547293 2.413091,-3.305566 2.413091,-3.305566" />
    <path
       id="path4890"
       style="fill:#ffffff;stroke:#000000;stroke-width:0.0572144px"
       inkscape:connector-curvature="0"
       d="m 100.39975,36.043554 c 0,0 -0.0981,-2.328646 -2.746086,-2.540293 -2.647972,-0.211701 -5.68826,-1.164293 -5.68826,-1.164293 0,0 2.353767,1.058434 2.059561,2.011074 -0.294232,0.952646 -1.176887,1.587719 -2.059561,1.164292 -0.882677,-0.423378 -3.530649,-2.011073 -3.530649,-2.011073 0,0 0.588437,1.376 1.078837,2.222787 0.490364,0.846786 2.64797,1.164287 2.64797,1.693567 0,0.529244 -0.196151,1.376006 -0.980726,1.905219 -0.78457,0.529233 -1.078837,1.481861 -0.686522,1.905221 0.392298,0.42339 1.961455,0.635073 3.432602,0.105847 1.471092,-0.529231 3.334494,-0.211695 2.746081,-1.270146 -0.588443,-1.0585 -2.746081,-0.317543 -2.353766,-0.952647 0.392291,-0.635073 3.236446,-1.905213 4.413332,-1.693567 1.17688,0.211702 1.863407,-0.423383 1.863407,-0.423383 z" />
    <path
       id="path4368"
       style="fill:#000000;stroke:#000000;stroke-width:0.0561088px"
       inkscape:connector-curvature="0"
       d="m 43.032163,13.394342 c 0,0 -0.141948,0.492326 0.283886,1.336261 0.425846,0.843965 3.761638,1.617648 4.613324,2.953908 0.851686,1.33626 3.335793,2.813211 3.761633,4.430853 0.425846,1.617642 1.206575,2.67258 1.348482,5.134186 0.141955,2.461608 -0.212917,3.797868 0.780736,3.305573 0.993651,-0.492319 0.993651,-3.727525 0.638762,-4.430853 -0.354872,-0.703334 -1.206576,-2.672586 -0.42584,-2.391264 0.780729,0.281327 1.561405,0.492313 2.058261,0.914307 0.496821,0.421988 1.206576,0.984656 1.348482,0.492325 0.141948,-0.492325 -1.561405,-0.914313 -1.632416,-1.828621 -0.07098,-0.914308 0.496815,-0.984656 0.993653,-0.632986 0.49682,0.351646 0.42584,0.703334 0.922642,1.125287 0.496814,0.421976 1.916294,1.265972 3.54871,0.773616 1.632421,-0.492325 3.051859,-0.421988 3.264782,-0.140666 0.212916,0.281328 1.135559,0.632985 1.419493,0.914307 0.283902,0.281322 0.993658,0.07033 0,-0.843965 -0.993653,-0.91429 -1.703373,-0.703334 -2.697025,-1.33626 -0.993658,-0.632986 -1.348482,-1.687924 -2.76798,-1.898963 -1.419498,-0.210992 -1.632422,0.562649 -2.626013,0 -0.993659,-0.56265 -2.838936,-2.250568 -3.903545,-2.672581 -1.064609,-0.421988 -0.851686,-1.054938 -2.413151,-1.47695 -1.561404,-0.421989 -2.69703,-0.07034 -4.613324,-1.125288 -1.916295,-1.05495 -3.051853,-0.703334 -3.12287,-1.47695 -0.07097,-0.773617 -0.780729,-1.125287 -0.780729,-1.125287 z" />
    <path
       id="path4370"
       style="fill:#000000;stroke:#000000;stroke-width:0.0561088px"
       inkscape:connector-curvature="0"
       d="m 63.005471,27.297881 c 0,0 0.780731,0.56265 1.490449,0.632987 0.709719,0.07033 1.774328,0.843965 1.845345,1.68793 0.07097,0.843958 -0.212924,1.547292 -0.851686,0.914307 -0.638769,-0.632986 -0.709719,-1.265977 -1.135565,-1.68793 -0.42584,-0.421988 -1.348481,-1.547294 -1.348481,-1.547294 z" />
    <path
       id="path4372"
       style="fill:#000000;stroke:#000000;stroke-width:0.0561088px"
       inkscape:connector-curvature="0"
       d="m 50.726291,23.783664 c 0,0 -0.07097,1.617642 -1.348483,2.602238 -1.277531,0.984655 -3.548715,1.617642 -4.613323,1.33632 -1.064609,-0.281328 -1.774328,0.210991 -1.135559,0.843965 0.638762,0.632973 2.980902,1.054998 3.619665,2.320916 0.638764,1.265972 0.70972,2.109937 1.064609,2.602237 0.354866,0.492319 0.78073,0.773617 0.851686,-0.210991 0.07098,-0.984655 -0.922642,-2.320915 -1.632421,-3.586887 -0.709719,-1.265978 -0.496815,-1.125287 0.567794,-1.265978 1.064609,-0.14066 2.41309,-0.492319 2.838936,-1.547299 0.42584,-1.05498 0.638763,-1.547299 0.567783,-2.039594 -0.07097,-0.492314 -0.78073,-1.054939 -0.78073,-1.054939 z" />
    <path
       id="path4981"
       style="fill:none"
       inkscape:connector-curvature="0"
       d="m 875.11953,-286.8282 c 0,0 852.38997,-37.662 997.57997,965.1 l 145.19,1002.8" />
  </g>
  <metadata
     id="metadata1">
    <rdf:RDF>
      <cc:Work>
        <dc:format>image/svg+xml</dc:format>
        <dc:type
           rdf:resource="http://purl.org/dc/dcmitype/StillImage" />
        <cc:license
           rdf:resource="http://creativecommons.org/publicdomain/zero/1.0/" />
        <dc:publisher>
          <cc:Agent
             rdf:about="http://openclipart.org/">
            <dc:title>Openclipart</dc:title>
          </cc:Agent>
        </dc:publisher>
      </cc:Work>
      <cc:License
         rdf:about="http://creativecommons.org/licenses/publicdomain/">
        <cc:permits
           rdf:resource="http://creativecommons.org/ns#Reproduction" />
        <cc:permits
           rdf:resource="http://creativecommons.org/ns#Distribution" />
        <cc:permits
           rdf:resource="http://creativecommons.org/ns#DerivativeWorks" />
      </cc:License>
    </rdf:RDF>
  </metadata>
</svg>
